# xmcd CD database file
#
# Track frame offsets:
#	150
#	7483
#	21399
#	42722
#	56766
#	80936
#	95981
#	108357
#	136839
#	137666
#	153706
#	169219
#	176623
#	192737
#
# Disc length: 2796 seconds
#
# Revision: 0
# Processed by: cddbd v1.5.1PL0 Copyright (c) Steve Scherf et al.
# Submitted via: CDex 1.50beta10
#
DISCID=dc0aea0e
DTITLE=Willie Phoenix - Blues Reaction
DYEAR=2004
DGENRE=Blues
TTITLE0=crossing roads
TTITLE1=pills n' whiskey
TTITLE2=the sun
TTITLE3=leopard skin seated cadillac
TTITLE4=soldier's song
TTITLE5=let the limousine crash
TTITLE6=kill your pimp
TTITLE7=love is cold
TTITLE8=tune me up sir richards
TTITLE9=mothers bad luck child
TTITLE10=the waiting game (everybody's going 69)
TTITLE11=midnight kiss
TTITLE12=delta bones
TTITLE13=robert johnson
EXTD=YEAR: 2004
EXTT0=
EXTT1=
EXTT2=
EXTT3=
EXTT4=
EXTT5=
EXTT6=
EXTT7=
EXTT8=
EXTT9=
EXTT10=
EXTT11=
EXTT12=
EXTT13=
PLAYORDER=
